PathFileType	3	(X/Y/Z)	/mnt/e/Research/Bio/Osim_support/Data/PSU100/10hz/Subject7/trcs/Take_2_10hz.trc
DataRate	CameraRate	NumFrames	NumMarkers	Units	OrigDataRate	OrigDataStartFrame	OrigNumFrames
50.0	50.0	4	39	mm	50.0	422	16876	
Frame#	Time	LFHD			RFHD			LBHD			RBHD			C7			T10			CLAV			STRN			RBAK			LSHO			LUPA			LELB			LFRM			LWRA			LWRB			LFIN			RSHO			RUPA			RELB			RFRM			RWRA			RWRB			RFIN			LASI			RASI			LPSI			RPSI			LTHI			LKNE			LTIB			LANK			LHEE			LTOE			RTHI			RKNE			RTIB			RANK			RHEE			RTOE	
	X1	Y1	Z1	X2	Y2	Z2	X3	Y3	Z3	X4	Y4	Z4	X5	Y5	Z5	X6	Y6	Z6	X7	Y7	Z7	X8	Y8	Z8	X9	Y9	Z9	X10	Y10	Z10	X11	Y11	Z11	X12	Y12	Z12	X13	Y13	Z13	X14	Y14	Z14	X15	Y15	Z15	X16	Y16	Z16	X17	Y17	Z17	X18	Y18	Z18	X19	Y19	Z19	X20	Y20	Z20	X21	Y21	Z21	X22	Y22	Z22	X23	Y23	Z23	X24	Y24	Z24	X25	Y25	Z25	X26	Y26	Z26	X27	Y27	Z27	X28	Y28	Z28	X29	Y29	Z29	X30	Y30	Z30	X31	Y31	Z31	X32	Y32	Z32	X33	Y33	Z33	X34	Y34	Z34	X35	Y35	Z35	X36	Y36	Z36	X37	Y37	Z37	X38	Y38	Z38	X39	Y39	Z39
423	8.44000	193.21700	1486.20000	549.71500	146.62300	1491.62000	457.23900	353.90400	1488.96000	453.68100	292.92200	1488.64000	369.54700	317.02300	1326.91000	385.50800	388.73800	989.72600	330.14600	228.04900	1231.95000	467.81800	179.04800	1070.05000	479.09100	308.26200	1196.60000	267.64600	377.71100	1281.84000	557.60700	349.98700	1164.84000	665.36400	257.18300	1088.94000	743.24200	105.07000	1123.87000	741.60400	0.37343	1132.47000	618.89100	-16.73420	1171.94000	699.14800	-40.50470	1205.11000	634.58300	158.18100	1308.57000	331.26600	8.40638	1262.20000	382.72800	-84.74570	1241.44000	443.37600	-158.62500	1217.66000	578.96300	-112.79600	1238.60000	728.73400	-177.83700	1184.11000	726.02300	-161.35100	1196.62000	800.41000	302.09100	822.18800	550.23800	169.27900	825.18500	310.93800	435.54400	846.35000	470.29600	326.03700	846.88900	239.26500	255.51800	631.29900	638.97300	192.88500	470.93500	669.13500	226.73000	276.87600	649.32600	226.66500	87.74920	600.24300	259.76400	34.28110	499.36000	62.73600	35.53300	683.61100	163.37300	605.77900	226.93000	191.40100	383.05100	191.11400	346.47400	238.38400	156.79000	483.69700	98.54880	166.96200	557.83400	52.35660	226.12900	300.79300	35.97390	160.85900
424	8.46000	199.98300	1491.43000	507.58100	162.98100	1496.51000	411.19900	369.71200	1490.18000	428.22300	317.62600	1490.52000	338.21700	336.04700	1329.44000	355.73100	409.64200	991.29700	306.80300	241.11500	1235.55000	432.27600	191.05500	1074.36000	441.54900	334.15900	1198.11000	237.81800	385.45900	1285.44000	532.10400	352.72600	1167.84000	638.48600	257.38500	1091.20000	712.11900	104.33200	1121.05000	702.09000	5.52880	1125.94000	575.02800	-16.74710	1164.46000	654.29700	-37.33830	1195.28000	588.07000	182.79200	1311.92000	290.47300	28.86420	1272.30000	330.00000	-69.55050	1256.62000	382.98000	-155.43800	1241.34000	512.59900	-121.86600	1268.19000	664.97200	-188.64300	1215.29000	658.76900	-178.94300	1231.62000	733.17300	310.87300	825.13800	524.23200	188.78700	828.31600	278.96600	445.97800	846.36100	448.40000	349.16100	847.89000	214.47500	267.70900	636.88200	619.15500	206.05100	476.65000	652.53400	235.61400	280.28200	639.68300	228.16700	88.42790	598.36900	259.84100	34.27350	499.38900	62.72580	35.60480	683.60000	179.53600	608.48100	201.31900	201.14300	383.98900	175.86400	352.42000	234.39700	148.39600	486.75400	92.93090	165.21400	559.34300	46.03120	226.35100	301.74200	36.11760	160.99300
425	8.48000	208.76800	1496.70000	466.04500	181.85900	1501.61000	366.46900	385.76300	1491.18000	404.29100	342.94700	1491.84000	309.37100	355.74300	1331.63000	327.61600	429.72700	992.31500	284.55000	255.09300	1239.10000	398.11600	204.66600	1078.57000	405.10100	360.25700	1199.01000	210.04600	393.92400	1288.34000	507.61100	355.84000	1169.03000	611.25600	258.23700	1090.85000	679.77100	104.42000	1115.84000	662.39300	11.11230	1116.15000	532.44900	-15.79450	1154.71000	609.60100	-32.70920	1184.20000	543.24300	209.57600	1315.30000	251.70100	52.62070	1283.02000	278.87500	-50.24790	1272.73000	323.84400	-147.00300	1265.88000	446.41300	-124.50400	1297.77000	600.12200	-193.02200	1247.54000	590.08600	-189.31000	1266.70000	664.16300	319.76900	827.94100	498.83100	207.75100	831.48300	248.75400	456.34100	846.18400	426.91100	371.06100	848.87300	190.71300	279.32500	641.41200	598.82400	218.57200	481.25400	634.92900	243.58500	283.10800	629.33900	229.61100	89.43440	596.69900	259.87100	34.29270	499.37000	62.67760	35.68100	683.57100	194.75800	611.20900	177.50300	210.23900	385.64300	162.25500	357.31800	230.86100	142.35300	488.73700	89.05450	163.23300	560.32500	41.43070	226.65900	302.37700	36.30360	161.07500
426	8.50000	219.27300	1502.05000	425.93300	202.57500	1506.59000	324.30800	401.67800	1491.72000	382.02900	367.87500	1492.34000	283.20800	375.16300	1333.42000	301.33900	448.44800	993.01800	263.81100	269.31100	1242.50000	365.82000	217.93300	1083.06000	371.67700	385.73500	1199.61000	184.34700	402.69400	1290.84000	483.77800	359.65900	1169.59000	584.00000	260.72400	1089.86000	647.86100	106.49700	1108.88000	623.08500	18.97640	1102.50000	491.38900	-12.72590	1142.23000	565.25600	-27.23810	1169.75000	497.52200	237.03700	1318.26000	215.97700	78.15030	1293.12000	231.30700	-28.10250	1288.13000	268.30600	-133.82200	1289.61000	383.51000	-120.84400	1327.30000	537.12300	-191.01300	1279.65000	523.73100	-191.73000	1301.08000	596.93100	327.92300	829.95200	473.77600	226.08100	834.52700	220.32400	467.69900	847.32500	408.01300	391.80200	849.67700	168.35400	290.79900	645.08800	578.61000	231.27500	484.64900	617.39300	251.97300	285.20600	618.97800	231.08900	90.32140	594.87700	259.95400	34.27790	499.37600	62.67480	35.83630	683.43400	208.60200	613.75700	156.62600	218.34100	387.67100	151.24200	361.32600	228.80500	136.44600	489.93200	85.76950	161.42800	561.04600	38.09460	226.52200	302.80000	36.39160	161.40600
